<?xml version="1.0"?>
<svg xmlns="http://www.w3.org/2000/svg" xmlns:xlink="http://www.w3.org/1999/xlink" version="1.1" id="Capa_1" x="0px" y="0px" viewBox="0 0 386.1 386.1" style="enable-background:new 0 0 386.1 386.1;" xml:space="preserve" width="512px" height="512px" class=""><g><g>
	<g>
		<path d="M180.6,121.55H52.3c-6,0-11.3,4.5-11.3,10.5v123c0,6,5.3,10.5,11.3,10.5h1.6c2.1-28,26.2-51,55.5-51h15.5    c29.3,0,53.3,23,55.5,51c0.2,0,0.3,0,0.5,0c5.7-0.1,10.2-4.8,10.1-10.5v-123c0-0.2,0-0.3,0-0.5    C191,125.85,186.3,121.35,180.6,121.55z M117.3,207.25c-20.7,0-37.5-16.8-37.5-37.5s16.8-37.5,37.5-37.5c9.9,0,19.5,3.9,26.5,11    c7,7,11,16.6,11,26.5C154.9,190.35,138.1,207.25,117.3,207.25z" data-original="#000000" class="active-path" data-old_color="#000000" fill="#FFFFFF"/>
	</g>
</g><g>
	<g>
		<path d="M125,234.55h-15.5c-18.3,0-33.4,14-35.5,31h86.5C158.3,248.55,143.3,234.55,125,234.55z" data-original="#000000" class="active-path" data-old_color="#000000" fill="#FFFFFF"/>
	</g>
</g><g>
	<g>
		<path d="M129.8,157.35c-6.8-6.8-17.9-6.8-24.7-0.1c-6.9,6.8-6.9,17.9-0.1,24.7c6.8,6.9,17.9,6.9,24.7,0.1    c3.3-3.3,5.2-7.7,5.2-12.3C134.9,165.05,133.1,160.65,129.8,157.35z" data-original="#000000" class="active-path" data-old_color="#000000" fill="#FFFFFF"/>
	</g>
</g><g>
	<g>
		<path d="M364.9,71.55H21.3C9.5,71.55,0,81.15,0,92.85v200.4c0,11.8,9.6,21.3,21.3,21.3h343.4c11.8,0,21.3-9.6,21.3-21.3h0.1V92.85    C386.1,81.05,376.6,71.55,364.9,71.55z M237.3,157.55h65.2c5.5,0,10,4.5,10,10s-4.5,10-10,10h-65.2c-5.5,0-10-4.5-10-10    S231.9,157.55,237.3,157.55z M211.1,255.65c-0.1,17-13.9,30.8-30.9,30.8H51.9c-17-0.1-30.8-13.9-30.8-30.9v-123.3    c0.1-17,13.9-30.8,30.9-30.8h128.2c17.1,0,30.9,13.8,30.9,30.9V255.65z M354.6,229.55H237.3c-5.5,0-10-4.5-10-10s4.5-10,10-10    h117.3c5.5,0,10,4.5,10,10S360.1,229.55,354.6,229.55z" data-original="#000000" class="active-path" data-old_color="#000000" fill="#FFFFFF"/>
	</g>
</g></g> </svg>
