<?xml version="1.0"?>
<svg xmlns="http://www.w3.org/2000/svg" id="Capa_1" enable-background="new 0 0 512 512" height="512px" viewBox="0 0 512 512" width="512px"><g><g><path id="XMLID_1580_" d="m211.644 494.99c0 9.394 7.615 17.01 17.01 17.01h41.783c9.394 0 17.01-7.616 17.01-17.01v-161.806h-75.803z" data-original="#000000" class="active-path" data-old_color="#000000" fill="#FFFFFF"/><path id="XMLID_1548_" d="m255.272 192.266c0-18.146 6.226-34.855 16.629-48.144h-65.523v-77.75h52.866c6.923 0 12.534-5.612 12.534-12.535v-41.302c0-6.923-5.611-12.535-12.534-12.535h-71.058c-6.923 0-12.535 5.612-12.535 12.535v131.588h-2.515c-26.589 0-48.144 21.555-48.144 48.144v91.842c0 10.472 8.489 18.961 18.961 18.961h111.319z" data-original="#000000" class="active-path" data-old_color="#000000" fill="#FFFFFF"/><path id="XMLID_1547_" d="m353.237 146.306c.051.503.077 1.014.077 1.531v25.781c0 8.316-6.741 15.058-15.057 15.058s-15.058-6.742-15.058-15.058v-25.781c0-.905.094-1.787.247-2.648-21.746 4.636-38.059 23.948-38.059 47.077v110.803h82.659c10.472 0 18.961-8.489 18.961-18.961v-91.842c.001-21.582-14.202-39.846-33.77-45.96z" data-original="#000000" class="active-path" data-old_color="#000000" fill="#FFFFFF"/></g></g> </svg>
